<?xml version="1.0" encoding="UTF-8" standalone="no" ?>
<!DOCTYPE svg PUBLIC "-//W3C//DTD SVG 1.1//EN" "http://www.w3.org/Graphics/SVG/1.1/DTD/svg11.dtd">
<svg xmlns="http://www.w3.org/2000/svg" xmlns:xlink="http://www.w3.org/1999/xlink" version="1.1" width="640" height="480" viewBox="0 0 640 480" xml:space="preserve">
<desc>Created with Fabric.js 3.6.3</desc>
<defs>
</defs>
<g transform="matrix(1.25 0 0 1.25 454 310)"  >
<circle style="stroke: rgb(0,0,0); stroke-width: 0; stroke-dasharray: none; stroke-linecap: butt; stroke-dashoffset: 0; stroke-linejoin: miter; stroke-miterlimit: 4; fill: rgb(0,225,255); fill-rule: nonzero; opacity: 1;"  cx="0" cy="0" r="40" />
</g>
<g transform="matrix(1.25 0 0 1.25 507 221)"  >
<circle style="stroke: rgb(0,0,0); stroke-width: 0; stroke-dasharray: none; stroke-linecap: butt; stroke-dashoffset: 0; stroke-linejoin: miter; stroke-miterlimit: 4; fill: rgb(204,218,229); fill-rule: nonzero; opacity: 1;"  cx="0" cy="0" r="40" />
</g>
<g transform="matrix(1.25 0 0 1.25 367 358)"  >
<circle style="stroke: rgb(0,0,0); stroke-width: 0; stroke-dasharray: none; stroke-linecap: butt; stroke-dashoffset: 0; stroke-linejoin: miter; stroke-miterlimit: 4; fill: rgb(204,218,229); fill-rule: nonzero; opacity: 1;"  cx="0" cy="0" r="40" />
</g>
<g transform="matrix(1.25 0 0 1.25 404 426)"  >
<circle style="stroke: rgb(0,0,0); stroke-width: 0; stroke-dasharray: none; stroke-linecap: butt; stroke-dashoffset: 0; stroke-linejoin: miter; stroke-miterlimit: 4; fill: rgb(0,225,255); fill-rule: nonzero; opacity: 1;"  cx="0" cy="0" r="40" />
</g>
<g transform="matrix(1.25 0 0 1.25 257 437)"  >
<circle style="stroke: rgb(0,0,0); stroke-width: 0; stroke-dasharray: none; stroke-linecap: butt; stroke-dashoffset: 0; stroke-linejoin: miter; stroke-miterlimit: 4; fill: rgb(0,225,255); fill-rule: nonzero; opacity: 1;"  cx="0" cy="0" r="40" />
</g>
<g transform="matrix(1.25 0 0 1.25 592 434)"  >
<circle style="stroke: rgb(0,0,0); stroke-width: 0; stroke-dasharray: none; stroke-linecap: butt; stroke-dashoffset: 0; stroke-linejoin: miter; stroke-miterlimit: 4; fill: rgb(204,218,229); fill-rule: nonzero; opacity: 1;"  cx="0" cy="0" r="40" />
</g>
<g transform="matrix(1.25 0 0 1.25 573 283)"  >
<circle style="stroke: rgb(0,0,0); stroke-width: 0; stroke-dasharray: none; stroke-linecap: butt; stroke-dashoffset: 0; stroke-linejoin: miter; stroke-miterlimit: 4; fill: rgb(0,225,255); fill-rule: nonzero; opacity: 1;"  cx="0" cy="0" r="40" />
</g>
<g transform="matrix(1.25 0 0 1.25 585 153)"  >
<circle style="stroke: rgb(0,0,0); stroke-width: 0; stroke-dasharray: none; stroke-linecap: butt; stroke-dashoffset: 0; stroke-linejoin: miter; stroke-miterlimit: 4; fill: rgb(0,225,255); fill-rule: nonzero; opacity: 1;"  cx="0" cy="0" r="40" />
</g>
<g transform="matrix(1.25 0 0 1.25 508 401)"  >
<circle style="stroke: rgb(0,0,0); stroke-width: 0; stroke-dasharray: none; stroke-linecap: butt; stroke-dashoffset: 0; stroke-linejoin: miter; stroke-miterlimit: 4; fill: rgb(0,225,255); fill-rule: nonzero; opacity: 1;"  cx="0" cy="0" r="40" />
</g>
<g transform="matrix(1.25 0 0 1.25 584 47)"  >
<circle style="stroke: rgb(0,0,0); stroke-width: 0; stroke-dasharray: none; stroke-linecap: butt; stroke-dashoffset: 0; stroke-linejoin: miter; stroke-miterlimit: 4; fill: rgb(0,225,255); fill-rule: nonzero; opacity: 1;"  cx="0" cy="0" r="40" />
</g>
</svg>